#!OML:ASF \\sashay\E\Suitcase\Project 1\Capture day 1\Session 1\Male1.ASF
:FULLY-SPECIFIED
:DEGREES
522
root -1.32936 17.5158 10.2484 9.02043 4.76923 -1.82767
lowerback 0.414641 -2.03494 1.39179
upperback 1.1262 -2.73392 2.56601
thorax 0.982179 -1.36714 1.83691
lowerneck -15.8884 0.945252 -1.31963
upperneck 24.3534 4.35334 -9.80728
head 10.7087 0.693982 -2.69879
rclavicle 8.24956e-015 -7.55382e-015
rhumerus -60.2668 -43.1163 -30.2143
rradius 9.79719
rwrist 17.8714
rhand -8.65476 10.5832
rfingers 7.12502
rthumb 17.2787 -18.6687
lclavicle 8.24956e-015 -7.55382e-015
lhumerus -35.6761 -3.46574 87.0466
lradius 36.651
lwrist -3.54957
lhand 0.193421 44.2092
lfingers 7.12502
lthumb 25.7756 72.4832
rfemur -8.03138 -1.18677 25.8999
rtibia 14.179
rfoot -15.4826 -16.3132
rtoes 14.3554
lfemur -8.74488 -3.87183 -13.4369
ltibia 16.2412
lfoot -16.0219 0.972045
ltoes -6.79412
523
root -1.33331 17.5132 10.2299 8.88127 4.82065 -2.10909
lowerback 0.659837 -2.0769 1.67461
upperback 1.14673 -2.78285 2.67356
thorax 0.859024 -1.38982 1.79856
lowerneck -15.9494 0.977579 -1.23782
upperneck 24.3681 4.41681 -9.9394
head 10.7353 0.712354 -2.75279
rclavicle 1.27222e-014 -1.39149e-014
rhumerus -59.3037 -43.1131 -30.954
rradius 9.22409
rwrist 17.4998
rhand -9.18069 11.3476
rfingers 7.12502
rthumb 16.7725 -17.9479
lclavicle 1.27222e-014 -1.39149e-014
lhumerus -35.6509 -3.67984 87.0881
lradius 36.9619
lwrist -3.37414
lhand 0.687938 44.2149
lfingers 7.12502
lthumb 26.2491 72.4193
rfemur -7.97486 -1.25797 26.2348
rtibia 14.2015
rfoot -15.4305 -16.3219
rtoes 14.0772
lfemur -8.71482 -3.72058 -13.1023
ltibia 16.2886
lfoot -16.0632 0.770232
ltoes -6.82223
524
root -1.31878 17.5157 10.2422 8.80503 5.00449 -1.90625
lowerback 0.502449 -2.16447 1.77504
upperback 1.10073 -2.90293 2.58976
thorax 0.893019 -1.44833 1.651
lowerneck -15.6308 0.969056 -1.26137
upperneck 24.3619 4.40606 -9.98425
head 10.6706 0.709335 -2.76542
rclavicle -9.14409e-015 -2.34566e-014
rhumerus -59.1203 -42.8023 -31.3703
rradius 9.73025
rwrist 17.3285
rhand -9.07177 10.9416
rfingers 7.12502
rthumb 16.8773 -18.345
lclavicle -9.14409e-015 -2.34566e-014
lhumerus -35.8349 -3.93728 87.212
lradius 37.0843
lwrist -3.46868
lhand 0.786934 44.2317
lfingers 7.12502
lthumb 26.3439 72.422
rfemur -7.86416 -2.50594 25.9601
rtibia 14.3311
rfoot -15.3956 -15.4011
rtoes 13.1841
lfemur -8.48429 -3.72823 -13.399
ltibia 16.1765
lfoot -16.199 0.572912
ltoes -6.92104
525
root -1.32168 17.5138 10.2194 8.70209 4.81602 -1.93785
lowerback 0.871169 -2.09643 1.80082
upperback 1.01349 -2.79608 2.62608
thorax 0.595837 -1.39588 1.69113
lowerneck -15.5295 0.935284 -1.40163
upperneck 24.4019 4.38652 -9.95114
head 10.6618 0.692559 -2.7329
rclavicle -3.26007e-014 9.14409e-015
rhumerus -58.5247 -42.8363 -31.9782
rradius 9.82463
rwrist 17.3081
rhand -9.16617 10.616
rfingers 7.12502
rthumb 16.7865 -18.6783
lclavicle -3.26007e-014 9.14409e-015
lhumerus -35.7573 -4.42668 87.4694
lradius 36.9648
lwrist -3.09957
lhand 0.776398 44.3297
lfingers 7.12502
lthumb 26.3338 72.5215
rfemur -7.89609 -2.27128 25.9927
rtibia 14.3963
rfoot -15.2665 -15.5057
rtoes 12.8057
lfemur -8.4141 -3.71494 -13.3715
ltibia 16.1322
lfoot -16.1438 0.706588
ltoes -7.06268
526
root -1.31898 17.518 10.2042 8.77274 4.72283 -1.5914
lowerback 0.894968 -2.11779 1.51552
upperback 1.00416 -2.82465 2.54219
thorax 0.582799 -1.41191 1.76549
lowerneck -15.6125 0.959913 -1.42749
upperneck 24.3981 4.43934 -9.97737
head 10.6805 0.708683 -2.73097
rclavicle 3.89618e-014 -2.10712e-014
rhumerus -57.6241 -42.9149 -32.8031
rradius 9.70703
rwrist 17.1358
rhand -9.46402 10.3164
rfingers 7.12502
rthumb 16.4997 -19.002
lclavicle 3.89618e-014 -2.10712e-014
lhumerus -35.7776 -4.2926 87.4141
lradius 37.3232
lwrist -3.41988
lhand 0.779545 44.5024
lfingers 7.12502
lthumb 26.3368 72.6937
rfemur -8.07549 -2.3306 25.5909
rtibia 14.5316
rfoot -15.2243 -15.4376
rtoes 12.6187
lfemur -8.44711 -3.70081 -13.7818
ltibia 16.0215
lfoot -16.0854 0.715946
ltoes -7.10563
527
root -1.31583 17.5171 10.1971 8.66087 4.62782 -1.56218
lowerback 0.835217 -2.07595 1.56043
upperback 1.11086 -2.77397 2.56268
thorax 0.723566 -1.38606 1.7564
lowerneck -15.5857 0.936214 -1.54528
upperneck 24.3122 4.44714 -10.0497
head 10.6455 0.697185 -2.73367
rclavicle 3.45885e-014 -8.34896e-015
rhumerus -56.6718 -43.2725 -33.6133
rradius 9.4248
rwrist 17.0877
rhand -10.0992 10.172
rfingers 7.12502
rthumb 15.8881 -19.1962
lclavicle 3.45885e-014 -8.34896e-015
lhumerus -35.5594 -4.73802 87.6785
lradius 37.2497
lwrist -3.33615
lhand 0.761655 44.441
lfingers 7.12502
lthumb 26.3197 72.6349
rfemur -8.0872 -2.43104 25.5351
rtibia 14.7398
rfoot -15.3073 -15.2882
rtoes 12.7901
lfemur -8.26976 -3.6215 -13.8451
ltibia 15.914
lfoot -16.0623 0.695246
ltoes -7.01154
528
root -1.33097 17.5174 10.1783 8.74336 4.3195 -1.68859
lowerback 0.65133 -1.97631 1.41632
upperback 1.19252 -2.65122 2.69461
thorax 0.920824 -1.3265 1.96322
lowerneck -15.5508 0.973559 -1.45938
upperneck 24.1439 4.52909 -10.3189
head 10.5918 0.719074 -2.8302
rclavicle 3.32964e-014 -3.29983e-014
rhumerus -55.9073 -43.3753 -34.3298
rradius 9.70833
rwrist 16.7712
rhand -10.1337 9.56237
rfingers 7.12502
rthumb 15.8549 -19.8085
lclavicle 3.32964e-014 -3.29983e-014
lhumerus -35.2881 -5.04877 87.8808
lradius 37.2899
lwrist -3.01691
lhand 0.704767 44.5093
lfingers 7.12502
lthumb 26.2652 72.7113
rfemur -8.32627 -1.66297 25.7054
rtibia 14.7989
rfoot -15.2911 -15.7278
rtoes 13.3088
lfemur -8.44076 -3.49559 -13.6687
ltibia 15.9525
lfoot -15.9645 0.860416
ltoes -6.8424
529
root -1.33221 17.5169 10.1753 8.55955 4.29667 -1.37288
lowerback 0.464399 -2.02868 1.08747
upperback 1.46991 -2.73428 2.60962
thorax 1.32336 -1.37129 2.04607
lowerneck -15.6869 1.07679 -1.13201
upperneck 23.9744 4.67158 -10.6799
head 10.5815 0.775029 -2.99355
rclavicle -1.66979e-014 -1.59028e-014
rhumerus -54.8898 -43.6227 -35.3395
rradius 9.69581
rwrist 16.6538
rhand -10.4376 10.118
rfingers 7.12502
rthumb 15.5622 -19.2759
lclavicle -1.66979e-014 -1.59028e-014
lhumerus -34.9109 -5.00398 87.8126
lradius 37.4173
lwrist -3.35244
lhand 0.886185 44.7362
lfingers 7.12502
lthumb 26.4389 72.9122
rfemur -8.08021 -1.7439 25.3496
rtibia 14.7508
rfoot -15.2935 -15.7094
rtoes 13.438
lfemur -8.3393 -3.50983 -14.04
ltibia 16.1919
lfoot -16.1021 0.849682
ltoes -6.65964
530
root -1.34208 17.5139 10.1528 8.47762 4.2919 -1.88921
lowerback 0.468654 -1.88648 1.54693
upperback 1.61479 -2.55306 2.86085
thorax 1.4565 -1.27669 2.04626
lowerneck -15.9907 0.995816 -1.26974
upperneck 23.9973 4.66149 -10.8504
head 10.6547 0.728144 -3.03544
rclavicle 9.14409e-015 1.07344e-014
rhumerus -54.2232 -44.0319 -35.7077
rradius 9.67711
rwrist 16.5989
rhand -10.4112 9.4242
rfingers 7.12502
rthumb 15.5876 -19.9677
lclavicle 9.14409e-015 1.07344e-014
lhumerus -34.4323 -5.62802 88.1701
lradius 37.2943
lwrist -3.46115
lhand 1.1098 44.458
lfingers 7.12502
lthumb 26.6529 72.6017
rfemur -8.11892 -1.26693 25.9665
rtibia 14.7069
rfoot -15.2174 -16.126
rtoes 13.6586
lfemur -8.5445 -3.43973 -13.4103
ltibia 16.4578
lfoot -16.1212 0.835215
ltoes -6.48171
531
root -1.35102 17.5116 10.1159 8.37242 4.0717 -2.16355
lowerback 0.878274 -1.81917 1.74949
upperback 1.53003 -2.44612 2.92054
thorax 1.13133 -1.22175 2.01111
lowerneck -15.9101 1.07493 -1.05691
upperneck 24.0276 4.76026 -11.0211
head 10.6649 0.774017 -3.12116
rclavicle -1.56046e-014 1.63003e-014
rhumerus -53.3371 -44.1826 -36.6274
rradius 9.3621
rwrist 16.6983
rhand -10.7675 10.3343
rfingers 7.12502
rthumb 15.2444 -19.084
lclavicle -1.56046e-014 1.63003e-014
lhumerus -34.4397 -5.97144 88.1845
lradius 37.4689
lwrist -3.59952
lhand 1.0427 44.2583
lfingers 7.12502
lthumb 26.5887 72.4117
rfemur -8.18792 -0.492382 26.2864
rtibia 14.6895
rfoot -15.0985 -16.6546
rtoes 13.9267
lfemur -8.66857 -3.36223 -13.0807
ltibia 16.6178
lfoot -16.0188 0.967508
ltoes -6.26755
532
root -1.35838 17.5122 10.1017 8.35123 4.06781 -2.09998
lowerback 0.888255 -1.76604 1.63074
upperback 1.51355 -2.37505 2.96766
thorax 1.11404 -1.18797 2.1267
lowerneck -15.9782 1.02155 -1.2207
upperneck 24.1211 4.73501 -10.983
head 10.7083 0.74597 -3.0859
rclavicle -1.78906e-015 1.35174e-014
rhumerus -52.3575 -44.455 -37.2933
rradius 8.87993
rwrist 16.7986
rhand -11.3929 9.24199
rfingers 7.12502
rthumb 14.642 -20.2211
lclavicle -1.78906e-015 1.35174e-014
lhumerus -34.4672 -6.31382 88.3499
lradius 37.7573
lwrist -3.79316
lhand 1.23388 44.6217
lfingers 7.12502
lthumb 26.7717 72.7472
rfemur -8.18298 -0.313311 26.243
rtibia 14.594
rfoot -15.019 -16.8476
rtoes 14.0025
lfemur -8.85405 -3.37575 -13.1225
ltibia 16.8797
lfoot -16.0634 0.976055
ltoes -6.0224
